[Header]
FileType HTR
DataType HTRS
FileVersion 1
NumSegments 64
NumFrames 4
DataFrameRate 24
EulerRotationOrder ZYX
CalibrationUnits mm
RotationUnits Degrees
GlobalAxisofGravity Y
BoneLengthAxis Y
ScaleFactor 1.0
[SegmentNames&Hierarchy]
Hips	GLOBAL
Spine	Hips
Spine1	Spine
Spine2	Spine1
Neck	Spine2
Head	Neck
LeftEye	Head
RightEye	Head
LeftShoulder	Spine2
LeftArm	LeftShoulder
LeftForeArm	LeftArm
LeftHand	LeftForeArm
LeftHandThumb1	LeftHand
LeftHandThumb2	LeftHandThumb1
LeftHandThumb3	LeftHandThumb2
LeftHandThumb4	LeftHandThumb3
LeftHandIndex1	LeftHand
LeftHandIndex2	LeftHandIndex1
LeftHandIndex3	LeftHandIndex2
LeftHandIndex4	LeftHandIndex3
LeftHandMiddle1	LeftHand
LeftHandMiddle2	LeftHandMiddle1
LeftHandMiddle3	LeftHandMiddle2
LeftHandMiddle4	LeftHandMiddle3
LeftHandRing1	LeftHand
LeftHandRing2	LeftHandRing1
LeftHandRing3	LeftHandRing2
LeftHandRing4	LeftHandRing3
LeftHandPinky1	LeftHand
LeftHandPinky2	LeftHandPinky1
LeftHandPinky3	LeftHandPinky2
LeftHandPinky4	LeftHandPinky3
RightShoulder	Spine2
RightArm	RightShoulder
RightForeArm	RightArm
RightHand	RightForeArm
RightHandPinky1	RightHand
RightHandPinky2	RightHandPinky1
RightHandPinky3	RightHandPinky2
RightHandPinky4	RightHandPinky3
RightHandRing1	RightHand
RightHandRing2	RightHandRing1
RightHandRing3	RightHandRing2
RightHandRing4	RightHandRing3
RightHandMiddle1	RightHand
RightHandMiddle2	RightHandMiddle1
RightHandMiddle3	RightHandMiddle2
RightHandMiddle4	RightHandMiddle3
RightHandIndex1	RightHand
RightHandIndex2	RightHandIndex1
RightHandIndex3	RightHandIndex2
RightHandIndex4	RightHandIndex3
RightHandThumb1	RightHand
RightHandThumb2	RightHandThumb1
RightHandThumb3	RightHandThumb2
RightHandThumb4	RightHandThumb3
LeftUpLeg	Hips
LeftLeg	LeftUpLeg
LeftFoot	LeftLeg
LeftToeBase	LeftFoot
RightUpLeg	Hips
RightLeg	RightUpLeg
RightFoot	RightLeg
RightToeBase	RightFoot
[BasePosition]
Hips	0	0	0	0	0	0	1
Spine	0	0	0	0	0	0	1
Spine1	0	0	0	0	0	0	1
Spine2	0	0	0	0	0	0	1
Neck	0	0	0	0	0	0	1
Head	0	0	0	0	0	0	1
LeftEye	0	0	0	0	0	0	1
RightEye	0	0	0	0	0	0	1
LeftShoulder	0	0	0	0	0	0	1
LeftArm	0	0	0	0	0	0	1
LeftForeArm	0	0	0	0	0	0	1
LeftHand	0	0	0	0	0	0	1
LeftHandThumb1	0	0	0	0	0	0	1
LeftHandThumb2	0	0	0	0	0	0	1
LeftHandThumb3	0	0	0	0	0	0	1
LeftHandThumb4	0	0	0	0	0	0	1
LeftHandIndex1	0	0	0	0	0	0	1
LeftHandIndex2	0	0	0	0	0	0	1
LeftHandIndex3	0	0	0	0	0	0	1
LeftHandIndex4	0	0	0	0	0	0	1
LeftHandMiddle1	0	0	0	0	0	0	1
LeftHandMiddle2	0	0	0	0	0	0	1
LeftHandMiddle3	0	0	0	0	0	0	1
LeftHandMiddle4	0	0	0	0	0	0	1
LeftHandRing1	0	0	0	0	0	0	1
LeftHandRing2	0	0	0	0	0	0	1
LeftHandRing3	0	0	0	0	0	0	1
LeftHandRing4	0	0	0	0	0	0	1
LeftHandPinky1	0	0	0	0	0	0	1
LeftHandPinky2	0	0	0	0	0	0	1
LeftHandPinky3	0	0	0	0	0	0	1
LeftHandPinky4	0	0	0	0	0	0	1
RightShoulder	0	0	0	0	0	0	1
RightArm	0	0	0	0	0	0	1
RightForeArm	0	0	0	0	0	0	1
RightHand	0	0	0	0	0	0	1
RightHandPinky1	0	0	0	0	0	0	1
RightHandPinky2	0	0	0	0	0	0	1
RightHandPinky3	0	0	0	0	0	0	1
RightHandPinky4	0	0	0	0	0	0	1
RightHandRing1	0	0	0	0	0	0	1
RightHandRing2	0	0	0	0	0	0	1
RightHandRing3	0	0	0	0	0	0	1
RightHandRing4	0	0	0	0	0	0	1
RightHandMiddle1	0	0	0	0	0	0	1
RightHandMiddle2	0	0	0	0	0	0	1
RightHandMiddle3	0	0	0	0	0	0	1
RightHandMiddle4	0	0	0	0	0	0	1
RightHandIndex1	0	0	0	0	0	0	1
RightHandIndex2	0	0	0	0	0	0	1
RightHandIndex3	0	0	0	0	0	0	1
RightHandIndex4	0	0	0	0	0	0	1
RightHandThumb1	0	0	0	0	0	0	1
RightHandThumb2	0	0	0	0	0	0	1
RightHandThumb3	0	0	0	0	0	0	1
RightHandThumb4	0	0	0	0	0	0	1
LeftUpLeg	0	0	0	0	0	0	1
LeftLeg	0	0	0	0	0	0	1
LeftFoot	0	0	0	0	0	0	1
LeftToeBase	0	0	0	0	0	0	1
RightUpLeg	0	0	0	0	0	0	1
RightLeg	0	0	0	0	0	0	1
RightFoot	0	0	0	0	0	0	1
RightToeBase	0	0	0	0	0	0	1
[Hips]
19	-29.32609749	1040.103638	-36.34914017	2.986228466	5.327402115	2.540983438	1.0
20	-3.733681679	1014.84729	-18.26592064	1.964021206	4.518558025	3.259188175	1.0
21	19.87196159	976.3776245	-7.936655045	2.111850739	0.126327306	4.995279312	1.0
22	35.45615387	937.932373	-12.88891888	2.128684998	-9.019042969	6.902383327	1.0
[Spine]
19	0	101.8159943	1.315000057	12.73829079	-1.507481337	1.074796319	1.0
20	0	101.8159943	1.315000057	10.80897617	-0.120173201	1.842883706	1.0
21	0	101.8159943	1.315000057	8.289587021	1.470719695	0.4156902432	1.0
22	0	101.8159943	1.315000057	7.788236141	2.340597868	-3.059042215	1.0
[Spine1]
19	0	100.8349991	-10.00800037	2.736217499	-0.2682704031	-0.04900260642	1.0
20	0	100.8349991	-10.00800037	2.052764893	0.07933544368	0.9827803969	1.0
21	0	100.8349991	-10.00800037	1.509705782	0.3863010406	1.256152391	1.0
22	0	100.8349991	-10.00800037	1.549008727	0.5173775554	0.5865037441	1.0
[Spine2]
19	0	91	-13.73399925	2.734000921	-0.2808796465	-0.05172041431	1.0
20	0	91	-13.73399925	2.051698923	0.131223008	0.9761137962	1.0
21	0	91	-13.73399925	1.504676223	0.4476083219	1.249865413	1.0
22	0	91	-13.73399925	1.541836262	0.5473028421	0.5869017243	1.0
[Neck]
19	0	166.7169952	-25.16200066	7.380393505	1.381288052	-2.619238377	1.0
20	0	166.7169952	-25.16200066	9.762140274	1.673901558	-5.758818626	1.0
21	0	166.7169952	-25.16200066	11.34276485	2.318322659	-7.077826023	1.0
22	0	166.7169952	-25.16200066	10.92045879	3.349814415	-6.081310749	1.0
[Head]
19	0	96.17900085	16.84999847	-32.17635727	2.527395725	-6.0378232	1.0
20	0	96.17900085	16.84999847	-28.59703827	0.9599444866	-4.727165222	1.0
21	0	96.17900085	16.84999847	-25.84123993	2.114853621	-4.044632435	1.0
22	0	96.17900085	16.84999847	-27.77653313	7.641122818	-5.041339874	1.0
[LeftEye]
19	30.6760006	64.09500122	92.83599854	0	0	0	1.0
20	30.6760006	64.09500122	92.83599854	0	0	0	1.0
21	30.6760006	64.09500122	92.83599854	0	0	0	1.0
22	30.6760006	64.09500122	92.83599854	0	0	0	1.0
[RightEye]
19	-30.6760006	64.09500122	92.83499908	0	0	0	1.0
20	-30.6760006	64.09500122	92.83499908	0	0	0	1.0
21	-30.6760006	64.09500122	92.83499908	0	0	0	1.0
22	-30.6760006	64.09500122	92.83499908	0	0	0	1.0
[LeftShoulder]
19	45.70400238	109.4599991	-26.28000069	4.582364082	-26.69609642	-8.327912331	1.0
20	45.70400238	109.4599991	-26.28000069	5.327123642	-25.62351418	-12.05625629	1.0
21	45.70400238	109.4599991	-26.28000069	5.393101215	-24.69478607	-12.67659187	1.0
22	45.70400238	109.4599991	-26.28000069	5.26487875	-24.83574486	-11.9778614	1.0
[LeftArm]
19	105.923996	-5.24600029	-22.32099915	-3.312193632	-29.32821846	-40.43911743	1.0
20	105.923996	-5.24600029	-22.32099915	0.03410966694	-28.33831978	-55.06245422	1.0
21	105.923996	-5.24600029	-22.32099915	8.604099274	-27.79883575	-57.35421753	1.0
22	105.923996	-5.24600029	-22.32099915	16.7299366	-32.73115158	-47.04936218	1.0
[LeftForeArm]
19	278.414978	-0.0009999999311	0	7.922452642e-05	-83.4250946	-0.0002443657431	1.0
20	278.414978	-0.0009999999311	0	5.901612167e-05	-81.54761505	-0.0003096582368	1.0
21	278.414978	-0.0009999999311	0	-3.518813537e-05	-75.03573608	-0.0001541576203	1.0
22	278.414978	-0.0009999999311	0	-1.775414785e-05	-68.58333588	-0.0001989415468	1.0
[LeftHand]
19	283.2879944	0	0	89.79376221	-29.58053207	-32.5710144	1.0
20	283.2879944	0	0	92.84596252	-35.61301041	-21.28598595	1.0
21	283.2879944	0	0	87.37327576	-33.08005905	-9.745755196	1.0
22	283.2879944	0	0	75.44526672	-15.0706501	-5.223951817	1.0
[LeftHandThumb1]
19	24.6609993	-15.75	26.8239994	-1.28475368	-7.343997002	8.251970291	1.0
20	24.6609993	-15.75	26.8239994	-1.393851042	-8.032777786	8.534719467	1.0
21	24.6609993	-15.75	26.8239994	-1.44110918	-8.317156792	8.653087616	1.0
22	24.6609993	-15.75	26.8239994	-1.443722248	-8.332612038	8.659547806	1.0
[LeftHandThumb2]
19	32.29800034	-18.64699936	18.64699936	7.743919849	30.43466187	-0.5253048539	1.0
20	32.29800034	-18.64699936	18.64699936	7.033307076	34.19771576	-1.243421555	1.0
21	32.29800034	-18.64699936	18.64699936	6.696148396	35.77935028	-1.549764514	1.0
22	32.29800034	-18.64699936	18.64699936	6.677520275	35.86893845	-1.565302134	1.0
[LeftHandThumb3]
19	26.52600098	-15.31499958	15.31499958	-4.077436447	24.64154053	22.26954842	1.0
20	26.52600098	-15.31499958	15.31499958	-1.844866157	27.70746803	23.73513222	1.0
21	26.52600098	-15.31499958	15.31499958	-0.8661464453	28.97521019	24.39479446	1.0
22	26.52600098	-15.31499958	15.31499958	-0.8107120395	29.04597092	24.43183136	1.0
[LeftHandThumb4]
19	19.54599953	-11.28499985	11.28499985	0	0	0	1.0
20	19.54599953	-11.28499985	11.28499985	0	0	0	1.0
21	19.54599953	-11.28499985	11.28499985	0	0	0	1.0
22	19.54599953	-11.28499985	11.28499985	0	0	0	1.0
[LeftHandIndex1]
19	91.09299469	-5.170999527	22.60099792	2.36628437	5.175717831	-41.42780685	1.0
20	91.09299469	-5.170999527	22.60099792	2.171055079	6.038677216	-48.76218414	1.0
21	91.09299469	-5.170999527	22.60099792	2.075660944	6.371835709	-51.84217453	1.0
22	91.09299469	-5.170999527	22.60099792	2.069962502	6.38991642	-52.01531982	1.0
[LeftHandIndex2]
19	36.76399994	0	0	-4.237764835	5.605452538	-74.16014862	1.0
20	36.76399994	0	0	-4.831418514	5.740118504	-80.16062927	1.0
21	36.76399994	0	0	-5.082253456	5.777803421	-82.65994263	1.0
22	36.76399994	0	0	-5.096148491	5.779573917	-82.7979126	1.0
[LeftHandIndex3]
19	28.83100128	0	0	-5.508276463	5.816608906	-86.87571716	1.0
20	28.83100128	0	0	-6.172711372	5.814871788	-93.42588806	1.0
21	28.83100128	0	0	-6.44760561	5.791986942	-96.14389801	1.0
22	28.83100128	0	0	-6.462601185	5.79037571	-96.29250336	1.0
[LeftHandIndex4]
19	23.92700005	0	0	0	0	0	1.0
20	23.92700005	0	0	0	0	0	1.0
21	23.92700005	0	0	0	0	0	1.0
22	23.92700005	0	0	0	0	0	1.0
[LeftHandMiddle1]
19	95.33399963	0	0	-5.601416111	5.293580532	-66.20774078	1.0
20	95.33399963	0	0	-6.231091022	5.292453289	-71.90914917	1.0
21	95.33399963	0	0	-6.492684841	5.273470402	-74.28503418	1.0
22	95.33399963	0	0	-6.507126808	5.272082806	-74.41648102	1.0
[LeftHandMiddle2]
19	36.98199844	0	0	-6.531268597	5.782419682	-96.97360992	1.0
20	36.98199844	0	0	-7.277535439	5.641869068	-104.4608383	1.0
21	36.98199844	0	0	-7.581168652	5.555140018	-107.5725327	1.0
22	36.98199844	0	0	-7.597714424	5.549894333	-107.7434998	1.0
[LeftHandMiddle3]
19	29.50900078	0	0	-1.350371957	3.733263016	-39.76016998	1.0
20	29.50900078	0	0	-1.535948753	3.945188522	-42.53123856	1.0
21	29.50900078	0	0	-1.61641562	4.030929089	-43.68825531	1.0
22	29.50900078	0	0	-1.620939612	4.035645962	-43.75254822	1.0
[LeftHandMiddle4]
19	28.3390007	0	0	0	0	0	1.0
20	28.3390007	0	0	0	0	0	1.0
21	28.3390007	0	0	0	0	0	1.0
22	28.3390007	0	0	0	0	0	1.0
[LeftHandRing1]
19	91.04499817	-0.4390000105	-18.65100098	-7.78575182	2.48521471	-86.23529816	1.0
20	91.04499817	-0.4390000105	-18.65100098	-8.257594109	2.130712986	-90.77184296	1.0
21	91.04499817	-0.4390000105	-18.65100098	-8.448316574	1.973272324	-92.64756012	1.0
22	91.04499817	-0.4390000105	-18.65100098	-8.458594322	1.964560628	-92.74923706	1.0
[LeftHandRing2]
19	31.54000092	0	0	-4.58812809	5.692778587	-77.71847534	1.0
20	31.54000092	0	0	-5.189121246	5.790509224	-83.72035217	1.0
21	31.54000092	0	0	-5.441828728	5.81263876	-86.22002411	1.0
22	31.54000092	0	0	-5.455818653	5.813535213	-86.35801697	1.0
[LeftHandRing3]
19	29.37700081	0	0	-1.208662152	3.556394815	-37.53132248	1.0
20	29.37700081	0	0	-1.378593922	3.766857624	-40.19183731	1.0
21	29.37700081	0	0	-1.452436328	3.852379084	-41.30308914	1.0
22	29.37700081	0	0	-1.456583023	3.857087851	-41.36491394	1.0
[LeftHandRing4]
19	26.47500038	0	0	0	0	0	1.0
20	26.47500038	0	0	0	0	0	1.0
21	26.47500038	0	0	0	0	0	1.0
22	26.47500038	0	0	0	0	0	1.0
[LeftHandPinky1]
19	80.77799988	-4.887000084	-38.06099701	-15.37523174	3.601276875	-91.19552612	1.0
20	80.77799988	-4.887000084	-38.06099701	-16.30288124	3.030674934	-96.23955536	1.0
21	80.77799988	-4.887000084	-38.06099701	-16.67964172	2.780068159	-98.32857513	1.0
22	80.77799988	-4.887000084	-38.06099701	-16.69996834	2.766093016	-98.44246674	1.0
[LeftHandPinky2]
19	36	0	0	-2.187904358	4.553125858	-51.31293869	1.0
20	36	0	0	-2.197540998	4.56081152	-51.43438721	1.0
21	36	0	0	-2.20012331	4.562851429	-51.46696091	1.0
22	36	0	0	-2.200057745	4.562807083	-51.46599197	1.0
[LeftHandPinky3]
19	21.14200211	0	0	-2.328929186	4.662204266	-53.06841278	1.0
20	21.14200211	0	0	-2.3422575	4.672160149	-53.23226166	1.0
21	21.14200211	0	0	-2.346253395	4.675125122	-53.28121567	1.0
22	21.14200211	0	0	-2.346217394	4.675104141	-53.28096771	1.0
[LeftHandPinky4]
19	19.75699997	0	0	0	0	0	1.0
20	19.75699997	0	0	0	0	0	1.0
21	19.75699997	0	0	0	0	0	1.0
22	19.75699997	0	0	0	0	0	1.0
[RightShoulder]
19	-45.70000076	109.4620056	-26.28000069	5.599950314	20.97463226	13.60243416	1.0
20	-45.70000076	109.4620056	-26.28000069	5.555531025	20.91849518	13.62219429	1.0
21	-45.70000076	109.4620056	-26.28000069	5.455574989	21.59527779	12.85897732	1.0
22	-45.70000076	109.4620056	-26.28000069	5.124433041	23.38461876	10.67204857	1.0
[RightArm]
19	-105.9280014	-5.248000145	-22.32099915	19.06778908	54.13717651	54.24679565	1.0
20	-105.9280014	-5.248000145	-22.32099915	21.80716705	42.498703	64.60697937	1.0
21	-105.9280014	-5.248000145	-22.32099915	20.24342537	35.71557617	62.21709061	1.0
22	-105.9280014	-5.248000145	-22.32099915	22.01363564	42.07715225	49.13202667	1.0
[RightForeArm]
19	-278.414978	0	0	0.0001103481482	83.31153107	9.241438966e-05	1.0
20	-278.414978	0	0	-0.0002130561479	86.8703537	-1.464551588e-05	1.0
21	-278.414978	0	0	-4.606494258e-06	85.42398834	7.321719022e-05	1.0
22	-278.414978	0	0	-1.468485493e-06	76.10417175	-4.055816316e-05	1.0
[RightHand]
19	-283.2879944	0	0.0009999999311	-22.17801857	27.27928543	-33.51042938	1.0
20	-283.2879944	0	0.0009999999311	-22.19994736	22.16282845	-41.55141449	1.0
21	-283.2879944	0	0.0009999999311	-8.559473991	12.87653637	-36.99839783	1.0
22	-283.2879944	0	0.0009999999311	3.515315771	3.65768981	-22.57711029	1.0
[RightHandPinky1]
19	-80.76699829	-4.885000229	-38.06000137	-15.17360306	-1.636816144	97.52350616	1.0
20	-80.76699829	-4.885000229	-38.06000137	-15.2349968	-1.589643478	97.93202209	1.0
21	-80.76699829	-4.885000229	-38.06000137	-15.15572262	-1.649138451	97.41490936	1.0
22	-80.76699829	-4.885000229	-38.06000137	-15.17203522	-1.637277603	97.51882935	1.0
[RightHandPinky2]
19	-36	0	0.0009999999311	-1.749620914	-3.626739502	51.51560211	1.0
20	-36	0	0.0009999999311	-1.751138568	-3.627948761	51.53958893	1.0
21	-36	0	0.0009999999311	-1.749106646	-3.626340389	51.50758362	1.0
22	-36	0	0.0009999999311	-1.74957788	-3.626705408	51.51491165	1.0
[RightHandPinky3]
19	-21.14200211	0	0	-1.867008328	-3.716897249	53.3285675	1.0
20	-21.14200211	0	0	-1.868805766	-3.718255043	53.35654068	1.0
21	-21.14200211	0	0	-1.86638248	-3.7164433	53.31922913	1.0
22	-21.14200211	0	0	-1.866937757	-3.716871977	53.32771683	1.0
[RightHandPinky4]
19	-19.75699997	0	0	0	0	0	1.0
20	-19.75699997	0	0	0	0	0	1.0
21	-19.75699997	0	0	0	0	0	1.0
22	-19.75699997	0	0	0	0	0	1.0
[RightHandRing1]
19	-91.03599548	-0.4390000105	-18.65100098	-7.060715675	-0.8014089465	91.85610199	1.0
20	-91.03599548	-0.4390000105	-18.65100098	-7.089828491	-0.7728049755	92.2181015	1.0
21	-91.03599548	-0.4390000105	-18.65100098	-7.05267477	-0.8096963167	91.75653076	1.0
22	-91.03599548	-0.4390000105	-18.65100098	-7.060204983	-0.8021552563	91.8501358	1.0
[RightHandRing2]
19	-31.54000092	0	0	-4.320553303	-4.62016058	86.15756989	1.0
20	-31.54000092	0	0	-4.36285305	-4.62280035	86.68264008	1.0
21	-31.54000092	0	0	-4.310627937	-4.619491577	86.03445435	1.0
22	-31.54000092	0	0	-4.320813179	-4.620175362	86.16087341	1.0
[RightHandRing3]
19	-29.37700081	0	0	-1.154163957	-3.060733795	41.31361389	1.0
20	-29.37700081	0	0	-1.168680906	-3.077152729	41.58486176	1.0
21	-29.37700081	0	0	-1.151430368	-3.057623625	41.26247406	1.0
22	-29.37700081	0	0	-1.154632926	-3.06127286	41.32252884	1.0
[RightHandRing4]
19	-26.47500038	0	0	0	0	0	1.0
20	-26.47500038	0	0	0	0	0	1.0
21	-26.47500038	0	0	0	0	0	1.0
22	-26.47500038	0	0	0	0	0	1.0
[RightHandMiddle1]
19	-95.32500458	0	0	-5.483064651	-4.09965992	73.49320984	1.0
20	-95.32500458	0	0	-5.526183128	-4.09279108	73.97536469	1.0
21	-95.32500458	0	0	-5.472567558	-4.101173401	73.37591553	1.0
22	-95.32500458	0	0	-5.483099461	-4.099598885	73.49367523	1.0
[RightHandMiddle2]
19	-36.98199844	0	0	-6.018609524	-4.417998791	107.4616394	1.0
20	-36.98199844	0	0	-6.067280293	-4.402425766	108.0945663	1.0
21	-36.98199844	0	0	-6.006558418	-4.421755791	107.3053513	1.0
22	-36.98199844	0	0	-6.018560886	-4.418019772	107.4610748	1.0
[RightHandMiddle3]
19	-29.50900078	0	0	-1.284464955	-3.204718351	43.69847107	1.0
20	-29.50900078	0	0	-1.30010879	-3.220975161	43.97775269	1.0
21	-29.50900078	0	0	-1.28146112	-3.201583147	43.64485168	1.0
22	-29.50900078	0	0	-1.284945726	-3.205219746	43.70709991	1.0
[RightHandMiddle4]
19	-28.3390007	0	0.0009999999311	0	0	0	1.0
20	-28.3390007	0	0.0009999999311	0	0	0	1.0
21	-28.3390007	0	0.0009999999311	0	0	0	1.0
22	-28.3390007	0	0.0009999999311	0	0	0	1.0
[RightHandIndex1]
19	-91.08300018	-5.167999744	22.60099792	2.645786285	-5.350890636	51.07103729	1.0
20	-91.08300018	-5.167999744	22.60099792	2.634104967	-5.409153938	51.72055817	1.0
21	-91.08300018	-5.167999744	22.60099792	2.647075653	-5.336939812	50.92737198	1.0
22	-91.08300018	-5.167999744	22.60099792	2.644911766	-5.351115704	51.07957458	1.0
[RightHandIndex2]
19	-36.76399994	0	0	-4.035090923	-4.592153072	82.60412598	1.0
20	-36.76399994	0	0	-4.077151299	-4.59739542	83.12915802	1.0
21	-36.76399994	0	0	-4.025242329	-4.59087944	82.48104858	1.0
22	-36.76399994	0	0	-4.035362244	-4.592197895	82.60743713	1.0
[RightHandIndex3]
19	-28.83100128	0	0	-5.119138241	-4.604723454	96.06371307	1.0
20	-28.83100128	0	0	-5.163463593	-4.599814892	96.61605072	1.0
21	-28.83100128	0	0	-5.107974529	-4.605888367	95.92480469	1.0
22	-28.83100128	0	0	-5.119002342	-4.604749203	96.06195831	1.0
[RightHandIndex4]
19	-23.92700005	0	0	0	0	0	1.0
20	-23.92700005	0	0	0	0	0	1.0
21	-23.92700005	0	0	0	0	0	1.0
22	-23.92700005	0	0	0	0	0	1.0
[RightHandThumb1]
19	-24.64799881	-15.72700024	26.82600021	-2.387239933	10.16200066	-8.28409481	1.0
20	-24.64799881	-15.72700024	26.82600021	-2.394914627	10.21291828	-8.306697845	1.0
21	-24.64799881	-15.72700024	26.82600021	-2.384897709	10.14634323	-8.277160645	1.0
22	-24.64799881	-15.72700024	26.82600021	-2.386942148	10.16000843	-8.283224106	1.0
[RightHandThumb2]
19	-32.29800034	-18.64699936	18.64699936	7.075716019	-37.40613937	0.6022148132	1.0
20	-32.29800034	-18.64699936	18.64699936	7.01376009	-37.73858261	0.6458857059	1.0
21	-32.29800034	-18.64699936	18.64699936	7.099487305	-37.33609772	0.5771980882	1.0
22	-32.29800034	-18.64699936	18.64699936	7.081142902	-37.41291428	0.5933555365	1.0
[RightHandThumb3]
19	-26.52600098	-15.31399918	15.31399918	3.2600348	-34.37346649	-26.07812309	1.0
20	-26.52600098	-15.31399918	15.31399918	3.466354847	-34.61227417	-26.23035622	1.0
21	-26.52600098	-15.31399918	15.31399918	3.205862761	-34.31344986	-26.03656769	1.0
22	-26.52600098	-15.31399918	15.31399918	3.257541418	-34.37242508	-26.07527161	1.0
[RightHandThumb4]
19	-19.54599953	-11.28499985	11.28499985	0	0	0	1.0
20	-19.54599953	-11.28499985	11.28499985	0	0	0	1.0
21	-19.54599953	-11.28499985	11.28499985	0	0	0	1.0
22	-19.54599953	-11.28499985	11.28499985	0	0	0	1.0
[LeftUpLeg]
19	82.07800293	-67.51699829	-15.99599934	-51.77035141	28.38236809	10.24117565	1.0
20	82.07800293	-67.51699829	-15.99599934	-36.72558212	14.12382126	12.79000378	1.0
21	82.07800293	-67.51699829	-15.99599934	-24.89179039	2.438061714	9.856070518	1.0
22	82.07800293	-67.51699829	-15.99599934	-20.94750023	3.608766794	4.82942915	1.0
[LeftLeg]
19	0	-443.7049866	2.845999956	73.29548645	-1.069638491	-4.296618938	1.0
20	0	-443.7049866	2.845999956	59.36827087	-1.190309525	-2.515397549	1.0
21	0	-443.7049866	2.845999956	47.2838707	2.313971281	2.705703974	1.0
22	0	-443.7049866	2.845999956	48.98091125	5.995732784	8.005563736	1.0
[LeftFoot]
19	0	-444.2789917	-29.8219986	17.52624512	2.910780668	-17.57811737	1.0
20	0	-444.2789917	-29.8219986	18.84508514	3.747194767	-18.72421646	1.0
21	0	-444.2789917	-29.8219986	9.367955208	5.320711613	-17.31321716	1.0
22	0	-444.2789917	-29.8219986	-16.1624527	6.786658764	-16.72498894	1.0
[LeftToeBase]
19	0	-87.28699493	107.1060028	2.191287518	5.618412615e-07	-2.797870593e-06	1.0
20	0	-87.28699493	107.1060028	-6.469452381	7.518735856e-06	1.900398274e-06	1.0
21	0	-87.28699493	107.1060028	-22.99408722	-0.7183232307	-2.405036211	1.0
22	0	-87.28699493	107.1060028	-13.27698612	-1.389814088e-06	-4.136963526e-06	1.0
[RightUpLeg]
19	-82.07800293	-67.51699829	-15.99599934	-20.84113884	5.243971825	5.154808044	1.0
20	-82.07800293	-67.51699829	-15.99599934	-16.98881149	4.453125	6.06588459	1.0
21	-82.07800293	-67.51699829	-15.99599934	-25.25770187	5.620064735	2.68423152	1.0
22	-82.07800293	-67.51699829	-15.99599934	-42.0785675	8.757117271	-3.21003437	1.0
[RightLeg]
19	0	-443.7049866	2.861999989	31.48989105	-6.385870934	-7.086881161	1.0
20	0	-443.7049866	2.861999989	28.72768784	-7.401581287	-7.298434734	1.0
21	0	-443.7049866	2.861999989	45.69776535	-5.505810261	-8.43759346	1.0
22	0	-443.7049866	2.861999989	68.41487885	-3.561113119	-9.371444702	1.0
[RightFoot]
19	0	-444.2770081	-29.83799934	1.804373503	2.912614346	9.808439255	1.0
20	0	-444.2770081	-29.83799934	-7.621456623	1.607715368	-2.89357686	1.0
21	0	-444.2770081	-29.83799934	-13.82347298	2.752257109	-3.523898125	1.0
22	0	-444.2770081	-29.83799934	-4.849833965	10.19312954	10.12014771	1.0
[RightToeBase]
19	0	-87.28699493	107.1060028	-12.72174263	2.012714276e-06	3.71745341e-06	1.0
20	0	-87.28699493	107.1060028	-12.22621536	-3.180400427e-06	-1.629177405e-06	1.0
21	0	-87.28699493	107.1060028	-15.57417679	1.737450589e-06	1.55946168e-06	1.0
22	0	-87.28699493	107.1060028	-14.88875484	4.970715395e-07	8.583971294e-07	1.0
[EndOfFile]
